<mxfile host="65bd71144e">
    <diagram id="nyTn372R6Oij5jTGV8CP" name="page_set(BasePageクラス)">
        <mxGraphModel dx="1944" dy="1126" grid="1" gridSize="10" guides="1" tooltips="1" connect="1" arrows="1" fold="1" page="1" pageScale="1" pageWidth="827" pageHeight="1169" math="0" shadow="0">
            <root>
                <mxCell id="0"/>
                <mxCell id="1" parent="0"/>
                <mxCell id="2" value="" style="edgeStyle=orthogonalEdgeStyle;rounded=0;orthogonalLoop=1;jettySize=auto;html=1;" parent="1" source="3" edge="1">
                    <mxGeometry relative="1" as="geometry">
                        <mxPoint x="352" y="410" as="targetPoint"/>
                    </mxGeometry>
                </mxCell>
                <mxCell id="3" value="開始" style="strokeWidth=2;html=1;shape=mxgraph.flowchart.start_1;whiteSpace=wrap;" parent="1" vertex="1">
                    <mxGeometry x="317" y="290" width="70" height="40" as="geometry"/>
                </mxCell>
                <mxCell id="4" style="rounded=0;orthogonalLoop=1;jettySize=auto;html=1;entryX=1.02;entryY=0.26;entryDx=0;entryDy=0;endArrow=none;endFill=0;entryPerimeter=0;" parent="1" source="5" target="3" edge="1">
                    <mxGeometry relative="1" as="geometry">
                        <mxPoint x="392" y="320" as="targetPoint"/>
                    </mxGeometry>
                </mxCell>
                <mxCell id="5" value="&lt;div&gt;初期化メソッド&lt;/div&gt;&lt;div&gt;※インスタンス生成時に実行されます。&lt;/div&gt;&lt;div&gt;引数１：self &amp;gt;インスタンス自身&lt;/div&gt;&lt;div&gt;引数２：theme &amp;gt; Windowクラスの背景色テーマ（Str型）&lt;/div&gt;" style="text;html=1;align=left;verticalAlign=top;whiteSpace=wrap;rounded=0;fillColor=#f5f5f5;fontColor=#333333;strokeColor=#666666;" parent="1" vertex="1">
                    <mxGeometry x="457" y="220" width="330" height="70" as="geometry"/>
                </mxCell>
                <mxCell id="6" value="&lt;b style=&quot;&quot;&gt;&lt;font style=&quot;&quot;&gt;&lt;font style=&quot;font-size: 18px;&quot;&gt;ページクラスを配置するメソッド&lt;/font&gt;&lt;/font&gt;&lt;/b&gt;&lt;div&gt;&lt;font style=&quot;font-size: 14px;&quot;&gt;クラス：BaseWindow&lt;/font&gt;&lt;span style=&quot;font-size: 14px; background-color: initial;&quot;&gt;クラス（抽象クラス&lt;/span&gt;&lt;span style=&quot;background-color: initial; font-size: 14px;&quot;&gt;）&lt;/span&gt;&lt;/div&gt;&lt;div style=&quot;font-size: 14px;&quot;&gt;&lt;br&gt;&lt;/div&gt;&lt;div style=&quot;font-size: 14px;&quot;&gt;メソッドの役割&lt;/div&gt;&lt;div style=&quot;font-size: 14px;&quot;&gt;Windowクラス背景色テーマを設定するメソッド&lt;/div&gt;" style="text;html=1;align=left;verticalAlign=top;whiteSpace=wrap;rounded=0;fillColor=#f5f5f5;fontColor=#333333;strokeColor=#666666;" parent="1" vertex="1">
                    <mxGeometry x="20" y="30" width="310" height="120" as="geometry"/>
                </mxCell>
                <mxCell id="7" value="終了" style="strokeWidth=2;html=1;shape=mxgraph.flowchart.start_1;whiteSpace=wrap;" parent="1" vertex="1">
                    <mxGeometry x="317.5" y="690" width="70" height="40" as="geometry"/>
                </mxCell>
                <mxCell id="13" value="" style="edgeStyle=orthogonalEdgeStyle;rounded=0;orthogonalLoop=1;jettySize=auto;html=1;fontColor=#333333;" parent="1" edge="1">
                    <mxGeometry relative="1" as="geometry">
                        <mxPoint x="352.5" y="470" as="sourcePoint"/>
                        <mxPoint x="352.5" y="550" as="targetPoint"/>
                    </mxGeometry>
                </mxCell>
                <mxCell id="15" value="" style="edgeStyle=orthogonalEdgeStyle;rounded=0;orthogonalLoop=1;jettySize=auto;html=1;fontColor=#333333;" parent="1" edge="1">
                    <mxGeometry relative="1" as="geometry">
                        <mxPoint x="352.5" y="610" as="sourcePoint"/>
                        <mxPoint x="352.5" y="690" as="targetPoint"/>
                    </mxGeometry>
                </mxCell>
                <mxCell id="17" style="rounded=0;orthogonalLoop=1;jettySize=auto;html=1;entryX=1;entryY=0.5;entryDx=0;entryDy=0;endArrow=none;endFill=0;fontColor=#333333;" parent="1" source="18" edge="1">
                    <mxGeometry relative="1" as="geometry">
                        <mxPoint x="452.5" y="580" as="targetPoint"/>
                    </mxGeometry>
                </mxCell>
                <mxCell id="18" value="引数１：theme &amp;gt; Windowクラスの背景色テーマ（Str型）" style="text;html=1;align=left;verticalAlign=top;whiteSpace=wrap;rounded=0;fillColor=#f5f5f5;fontColor=#333333;strokeColor=#666666;" parent="1" vertex="1">
                    <mxGeometry x="512.5" y="550" width="314.5" height="30" as="geometry"/>
                </mxCell>
                <mxCell id="20" value="ctk.set_appearance_mode(引数２)" style="shape=process;whiteSpace=wrap;html=1;backgroundOutline=1;" vertex="1" parent="1">
                    <mxGeometry x="229.75" y="410" width="244.5" height="60" as="geometry"/>
                </mxCell>
                <mxCell id="21" value="self.style.&lt;br&gt;change_transparent_frame(theme)" style="shape=process;whiteSpace=wrap;html=1;backgroundOutline=1;" vertex="1" parent="1">
                    <mxGeometry x="230.25" y="550" width="244.5" height="60" as="geometry"/>
                </mxCell>
                <mxCell id="23" value="Windowの背景色設定" style="shape=callout;whiteSpace=wrap;html=1;perimeter=calloutPerimeter;position2=0.83;" vertex="1" parent="1">
                    <mxGeometry x="77" y="370" width="140" height="70" as="geometry"/>
                </mxCell>
                <mxCell id="24" value="CommonStyleクラスで保持するデザインをテーマに合わせて変更する" style="shape=callout;whiteSpace=wrap;html=1;perimeter=calloutPerimeter;position2=0.98;size=15;position=0.79;" vertex="1" parent="1">
                    <mxGeometry x="7" y="505" width="203.25" height="70" as="geometry"/>
                </mxCell>
            </root>
        </mxGraphModel>
    </diagram>
</mxfile>